<?xml version="1.0" encoding="utf-8"?>
<!-- Generator: Adobe Illustrator 15.1.0, SVG Export Plug-In . SVG Version: 6.00 Build 0)  -->
<!DOCTYPE svg PUBLIC "-//W3C//DTD SVG 1.1//EN" "http://www.w3.org/Graphics/SVG/1.1/DTD/svg11.dtd">
<svg version="1.1" id="Layer_1" xmlns="http://www.w3.org/2000/svg" xmlns:xlink="http://www.w3.org/1999/xlink" x="0px" y="0px"
	 width="15.24px" height="15.276px" viewBox="0 7.724 15.24 15.276" enable-background="new 0 7.724 15.24 15.276"
	 xml:space="preserve">
<path fill="#FFFFFF" d="M15.24,16.572c0,0.237-0.191,0.429-0.428,0.429H0.429C0.192,17.001,0,16.81,0,16.572v-1.795
	c0-0.234,0.192-0.427,0.429-0.427h14.386c0.234,0,0.426,0.192,0.426,0.429V16.572z"/>
<path fill="#FFFFFF" d="M15.24,9.946c0,0.237-0.191,0.429-0.428,0.429H0.429C0.192,10.375,0,10.184,0,9.946V8.151
	c0-0.235,0.192-0.427,0.429-0.427h14.386c0.234,0,0.426,0.192,0.426,0.429V9.946z"/>
<path fill="#FFFFFF" d="M15.24,22.537c0,0.236-0.191,0.428-0.428,0.428H0.429C0.192,22.965,0,22.773,0,22.537v-1.796
	c0-0.235,0.192-0.427,0.429-0.427h14.386c0.234,0,0.426,0.191,0.426,0.429V22.537z"/>
</svg>
