<?xml version="1.0" encoding="utf-8"?>
<!-- Generator: Adobe Illustrator 15.1.0, SVG Export Plug-In . SVG Version: 6.00 Build 0)  -->
<!DOCTYPE svg PUBLIC "-//W3C//DTD SVG 1.1//EN" "http://www.w3.org/Graphics/SVG/1.1/DTD/svg11.dtd">
<svg version="1.1" id="Layer_1" xmlns="http://www.w3.org/2000/svg" xmlns:xlink="http://www.w3.org/1999/xlink" x="0px" y="0px"
	 width="35.375px" height="35.375px" viewBox="0 0 35.375 35.375" enable-background="new 0 0 35.375 35.375" xml:space="preserve">
<g>
	<path fill="#E95655" d="M17.687,34.695c9.395,0,17.01-7.614,17.01-17.008c0-9.393-7.615-17.008-17.01-17.008
		c-9.393,0-17.008,7.615-17.008,17.008C0.679,27.081,8.294,34.695,17.687,34.695"/>
	<path fill="#FFFFFF" d="M17.688,9.139c-4.696,0-8.504,3.807-8.504,8.504c0,3.482,2.094,6.474,5.091,7.789
		c-0.024-0.594-0.004-1.307,0.147-1.953c0.164-0.689,1.094-4.634,1.094-4.634s-0.271-0.543-0.271-1.345
		c0-1.262,0.731-2.202,1.64-2.202c0.773,0,1.147,0.581,1.147,1.276c0,0.778-0.496,1.941-0.751,3.018
		c-0.213,0.902,0.452,1.639,1.342,1.639c1.611,0,2.696-2.069,2.696-4.521c0-1.863-1.256-3.258-3.538-3.258
		c-2.58,0-4.187,1.923-4.187,4.071c0,0.741,0.218,1.264,0.56,1.668c0.158,0.187,0.179,0.261,0.123,0.475
		c-0.041,0.155-0.134,0.533-0.173,0.683c-0.057,0.215-0.231,0.292-0.425,0.213c-1.188-0.486-1.742-1.787-1.742-3.249
		c0-2.415,2.037-5.313,6.077-5.313c3.247,0,5.383,2.351,5.383,4.872c0,3.337-1.854,5.828-4.588,5.828
		c-0.918,0-1.782-0.496-2.077-1.06c0,0-0.494,1.959-0.599,2.338c-0.18,0.654-0.533,1.311-0.856,1.82
		c0.765,0.227,1.573,0.35,2.41,0.35c4.696,0,8.505-3.808,8.505-8.504C26.192,12.945,22.383,9.139,17.688,9.139"/>
</g>
</svg>
