<?xml version="1.0" encoding="utf-8"?>
<!-- Generator: Adobe Illustrator 15.1.0, SVG Export Plug-In . SVG Version: 6.00 Build 0)  -->
<!DOCTYPE svg PUBLIC "-//W3C//DTD SVG 1.1//EN" "http://www.w3.org/Graphics/SVG/1.1/DTD/svg11.dtd">
<svg version="1.1" id="Layer_1" xmlns="http://www.w3.org/2000/svg" xmlns:xlink="http://www.w3.org/1999/xlink" x="0px" y="0px"
	 width="35.375px" height="35.375px" viewBox="0 0 35.375 35.375" enable-background="new 0 0 35.375 35.375" xml:space="preserve">
<g>
	<path fill="#547BBC" d="M17.688,34.695c9.393,0,17.008-7.614,17.008-17.008c0-9.393-7.615-17.008-17.008-17.008
		C8.294,0.68,0.68,8.295,0.68,17.688C0.68,27.081,8.294,34.695,17.688,34.695"/>
	<path fill="#FFFFFF" d="M13.584,14.808h1.759v-1.709c0-0.753,0.019-1.916,0.566-2.635c0.576-0.762,1.368-1.28,2.729-1.28
		c2.218,0,3.152,0.316,3.152,0.316l-0.439,2.605c0,0-0.733-0.212-1.417-0.212c-0.685,0-1.296,0.245-1.296,0.929v1.986h2.804
		l-0.196,2.544h-2.607v8.84h-3.296v-8.84h-1.759V14.808z"/>
</g>
</svg>
