<?xml version="1.0" encoding="utf-8"?>
<!-- Generator: Adobe Illustrator 15.1.0, SVG Export Plug-In . SVG Version: 6.00 Build 0)  -->
<!DOCTYPE svg PUBLIC "-//W3C//DTD SVG 1.1//EN" "http://www.w3.org/Graphics/SVG/1.1/DTD/svg11.dtd">
<svg version="1.1" id="Layer_1" xmlns="http://www.w3.org/2000/svg" xmlns:xlink="http://www.w3.org/1999/xlink" x="0px" y="0px"
	 width="35.375px" height="35.375px" viewBox="0 0 35.375 35.375" enable-background="new 0 0 35.375 35.375" xml:space="preserve">
<g>
	<path fill="#E9644A" d="M17.687,34.695c9.393,0,17.008-7.615,17.008-17.008c0-9.393-7.615-17.008-17.008-17.008
		c-9.394,0-17.008,7.615-17.008,17.008C0.679,27.08,8.293,34.695,17.687,34.695"/>
	<path fill="#FFFFFF" d="M20.99,17.695l-5.569,3.271v-6.542L20.99,17.695z M26.191,20.729v-6.082c0,0,0-2.931-2.932-2.931H12.113
		c0,0-2.93,0-2.93,2.931v6.082c0,0,0,2.93,2.93,2.93h11.146C23.259,23.658,26.191,23.658,26.191,20.729"/>
</g>
</svg>
