<?xml version="1.0" encoding="utf-8"?>
<!-- Generator: Adobe Illustrator 15.1.0, SVG Export Plug-In . SVG Version: 6.00 Build 0)  -->
<!DOCTYPE svg PUBLIC "-//W3C//DTD SVG 1.1//EN" "http://www.w3.org/Graphics/SVG/1.1/DTD/svg11.dtd">
<svg version="1.1" id="Layer_1" xmlns="http://www.w3.org/2000/svg" xmlns:xlink="http://www.w3.org/1999/xlink" x="0px" y="0px"
	 width="35.375px" height="35.375px" viewBox="0 0 35.375 35.375" enable-background="new 0 0 35.375 35.375" xml:space="preserve">
<path fill="#8CCFDD" d="M596.771,153.365c9.394,0,17.009-7.615,17.009-17.008s-7.615-17.008-17.009-17.008
	c-9.393,0-17.009,7.615-17.009,17.008S587.379,153.365,596.771,153.365"/>
<path fill="#FFFFFF" d="M605.266,132.807c-0.074,1.653-1.232,3.914-3.466,6.783c-2.312,3-4.271,4.499-5.872,4.499
	c-0.99,0-1.829-0.912-2.515-2.742c-0.459-1.679-0.915-3.357-1.373-5.032c-0.51-1.83-1.056-2.745-1.64-2.745
	c-0.127,0-0.57,0.267-1.334,0.802l-0.8-1.031c0.838-0.734,1.664-1.473,2.479-2.209c1.116-0.967,1.955-1.473,2.516-1.525
	c1.319-0.129,2.134,0.774,2.44,2.705c0.327,2.085,0.558,3.381,0.685,3.89c0.382,1.728,0.8,2.59,1.258,2.59
	c0.354,0,0.889-0.558,1.601-1.675c0.712-1.119,1.092-1.97,1.144-2.556c0.102-0.966-0.279-1.446-1.144-1.446
	c-0.406,0-0.826,0.086-1.258,0.267c0.84-2.72,2.44-4.041,4.804-3.964C604.542,129.465,605.368,130.598,605.266,132.807z"/>
<g>
	<path fill="#1384C7" d="M17.688,34.695c9.395,0,17.008-7.615,17.008-17.008c0-9.393-7.613-17.008-17.008-17.008
		C8.294,0.68,0.68,8.294,0.68,17.688C0.68,27.08,8.294,34.695,17.688,34.695"/>
	<path fill="#FFFFFF" d="M12.928,24.801H9.612V14.191h3.315V24.801z M11.185,12.864h-0.024c-1.2,0-1.978-0.812-1.978-1.838
		c0-1.048,0.801-1.842,2.025-1.842c1.223,0,1.975,0.792,1.999,1.839C13.208,12.051,12.431,12.864,11.185,12.864z M26.191,24.801
		h-3.76v-5.49c0-1.438-0.587-2.418-1.881-2.418c-0.988,0-1.538,0.662-1.795,1.301c-0.096,0.229-0.08,0.547-0.08,0.867v5.74h-3.725
		c0,0,0.048-9.725,0-10.609h3.725v1.665c0.22-0.728,1.409-1.767,3.309-1.767c2.355,0,4.207,1.525,4.207,4.812V24.801z"/>
</g>
</svg>
