<?xml version="1.0" encoding="utf-8"?>
<!-- Generator: Adobe Illustrator 15.1.0, SVG Export Plug-In . SVG Version: 6.00 Build 0)  -->
<!DOCTYPE svg PUBLIC "-//W3C//DTD SVG 1.1//EN" "http://www.w3.org/Graphics/SVG/1.1/DTD/svg11.dtd">
<svg version="1.1" id="Layer_1" xmlns="http://www.w3.org/2000/svg" xmlns:xlink="http://www.w3.org/1999/xlink" x="0px" y="0px"
	 width="35.375px" height="35.375px" viewBox="0 0 35.375 35.375" enable-background="new 0 0 35.375 35.375" xml:space="preserve">
<path fill="#8CCFDD" d="M596.771,153.365c9.394,0,17.009-7.615,17.009-17.008s-7.615-17.008-17.009-17.008
	c-9.393,0-17.009,7.615-17.009,17.008S587.379,153.365,596.771,153.365"/>
<path fill="#FFFFFF" d="M605.266,132.807c-0.074,1.653-1.232,3.914-3.466,6.783c-2.312,3-4.271,4.499-5.872,4.499
	c-0.99,0-1.829-0.912-2.515-2.742c-0.459-1.679-0.915-3.357-1.373-5.032c-0.51-1.83-1.056-2.745-1.64-2.745
	c-0.127,0-0.57,0.267-1.334,0.802l-0.8-1.031c0.838-0.734,1.664-1.473,2.479-2.209c1.116-0.967,1.955-1.473,2.516-1.525
	c1.319-0.129,2.134,0.774,2.44,2.705c0.327,2.085,0.558,3.381,0.685,3.89c0.382,1.728,0.8,2.59,1.258,2.59
	c0.354,0,0.889-0.558,1.601-1.675c0.712-1.119,1.092-1.97,1.144-2.556c0.102-0.966-0.279-1.446-1.144-1.446
	c-0.406,0-0.826,0.086-1.258,0.267c0.84-2.72,2.44-4.041,4.804-3.964C604.542,129.465,605.368,130.598,605.266,132.807z"/>
<g>
	<path fill="#D87DA5" d="M17.688,34.695c9.394,0,17.008-7.615,17.008-17.008c0-9.393-7.614-17.008-17.008-17.008
		C8.293,0.68,0.68,8.294,0.68,17.688C0.68,27.08,8.293,34.695,17.688,34.695"/>
	<path fill-rule="evenodd" clip-rule="evenodd" fill="#FFFFFF" d="M26.018,15.976c-0.111-0.546-0.279-1.085-0.496-1.599
		c-0.213-0.504-0.477-0.99-0.783-1.444c-0.305-0.45-0.654-0.874-1.038-1.258c-0.385-0.385-0.808-0.734-1.259-1.038
		c-0.453-0.308-0.939-0.571-1.443-0.785c-0.514-0.216-1.053-0.385-1.599-0.495c-0.56-0.115-1.136-0.174-1.712-0.174
		c-0.577,0-1.153,0.059-1.713,0.174c-0.546,0.11-1.084,0.279-1.598,0.495c-0.504,0.213-0.99,0.477-1.445,0.785
		c-0.45,0.304-0.874,0.653-1.258,1.038c-0.384,0.384-0.733,0.808-1.037,1.258c-0.307,0.454-0.571,0.94-0.784,1.444
		c-0.217,0.514-0.384,1.053-0.496,1.599c-0.115,0.559-0.173,1.136-0.173,1.712s0.058,1.153,0.173,1.713
		c0.112,0.546,0.279,1.084,0.496,1.598c0.213,0.504,0.477,0.991,0.784,1.445c0.304,0.45,0.653,0.873,1.037,1.258
		c0.385,0.385,0.808,0.732,1.258,1.037c0.455,0.307,0.941,0.571,1.445,0.784c0.514,0.218,1.052,0.384,1.598,0.495
		c0.561,0.116,1.137,0.174,1.713,0.174c0.576,0,1.152-0.058,1.712-0.174c0.546-0.111,1.085-0.277,1.599-0.495
		c0.504-0.213,0.99-0.478,1.443-0.784c0.451-0.305,0.874-0.652,1.259-1.037c0.384-0.385,0.733-0.808,1.038-1.258
		c0.307-0.454,0.57-0.941,0.783-1.445c0.217-0.514,0.385-1.052,0.496-1.598c0.115-0.56,0.174-1.137,0.174-1.713
		S26.133,16.534,26.018,15.976z M24.947,17.615c-0.105-0.023-2.562-0.553-5.059-0.238c-0.051-0.124-0.103-0.249-0.156-0.375
		c-0.151-0.355-0.314-0.707-0.482-1.053c2.867-1.172,4.031-2.855,4.045-2.875C24.314,14.312,24.93,15.892,24.947,17.615z
		 M22.484,12.237c-0.019,0.028-1.053,1.603-3.795,2.63c-1.241-2.281-2.604-4.093-2.714-4.237c0.549-0.133,1.122-0.205,1.712-0.205
		C19.525,10.425,21.204,11.11,22.484,12.237z M15.948,10.636c0,0.001-0.001,0.001-0.001,0.001s-0.008,0.002-0.022,0.005
		C15.932,10.64,15.94,10.639,15.948,10.636z M14.588,11.119c0.097,0.129,1.44,1.95,2.697,4.185c-3.487,0.927-6.513,0.89-6.705,0.887
		C11.052,13.941,12.563,12.076,14.588,11.119z M10.425,17.688c0-0.078,0.003-0.154,0.006-0.229c0.128,0.003,3.717,0.083,7.456-1.035
		c0.208,0.407,0.407,0.821,0.589,1.234c-0.097,0.026-0.19,0.056-0.286,0.087c-3.919,1.267-5.907,4.793-5.907,4.793
		s0.002,0.002,0.002,0.004C11.129,21.254,10.425,19.553,10.425,17.688z M17.688,24.95c-1.758,0-3.37-0.625-4.626-1.665
		c0.096,0.078,0.163,0.127,0.163,0.127s1.392-3.035,5.699-4.536c0.017-0.006,0.032-0.011,0.048-0.016
		c1.022,2.655,1.444,4.88,1.552,5.515C19.651,24.745,18.693,24.95,17.688,24.95z M21.745,23.711
		c-0.073-0.438-0.461-2.57-1.413-5.188c2.344-0.375,4.375,0.268,4.525,0.317C24.534,20.864,23.376,22.609,21.745,23.711z"/>
</g>
</svg>
