<?xml version="1.0" encoding="utf-8"?>
<!-- Generator: Adobe Illustrator 15.1.0, SVG Export Plug-In . SVG Version: 6.00 Build 0)  -->
<!DOCTYPE svg PUBLIC "-//W3C//DTD SVG 1.1//EN" "http://www.w3.org/Graphics/SVG/1.1/DTD/svg11.dtd">
<svg version="1.1" id="Layer_1" xmlns="http://www.w3.org/2000/svg" xmlns:xlink="http://www.w3.org/1999/xlink" x="0px" y="0px"
	 width="35.375px" height="35.375px" viewBox="0 0 35.375 35.375" enable-background="new 0 0 35.375 35.375" xml:space="preserve">
<path fill="#8CCFDD" d="M596.771,153.365c9.394,0,17.009-7.615,17.009-17.008s-7.615-17.008-17.009-17.008
	c-9.393,0-17.009,7.615-17.009,17.008S587.379,153.365,596.771,153.365"/>
<path fill="#FFFFFF" d="M605.266,132.807c-0.074,1.653-1.232,3.914-3.466,6.783c-2.312,3-4.271,4.499-5.872,4.499
	c-0.99,0-1.829-0.912-2.515-2.742c-0.459-1.679-0.915-3.357-1.373-5.032c-0.51-1.83-1.056-2.745-1.64-2.745
	c-0.127,0-0.57,0.267-1.334,0.802l-0.8-1.031c0.838-0.734,1.664-1.473,2.479-2.209c1.116-0.967,1.955-1.473,2.516-1.525
	c1.319-0.129,2.134,0.774,2.44,2.705c0.327,2.085,0.558,3.381,0.685,3.89c0.382,1.728,0.8,2.59,1.258,2.59
	c0.354,0,0.889-0.558,1.601-1.675c0.712-1.119,1.092-1.97,1.144-2.556c0.102-0.966-0.279-1.446-1.144-1.446
	c-0.406,0-0.826,0.086-1.258,0.267c0.84-2.72,2.44-4.041,4.804-3.964C604.542,129.465,605.368,130.598,605.266,132.807z"/>
<g id="flat">
	<g id="yelp">
		<path fill="#CA4638" d="M17.688,34.188c9.113,0,16.5-7.388,16.5-16.5s-7.387-16.5-16.5-16.5c-9.113,0-16.5,7.388-16.5,16.5
			S8.575,34.188,17.688,34.188z"/>
		<path fill="#FFFFFF" d="M19.608,19.859c-0.343,0.345-0.053,0.974-0.053,0.974l2.58,4.308c0,0,0.423,0.568,0.791,0.568
			c0.369,0,0.733-0.303,0.733-0.303l2.039-2.916c0,0,0.206-0.367,0.21-0.69c0.007-0.458-0.684-0.583-0.684-0.583l-4.829-1.551
			C20.396,19.666,19.923,19.541,19.608,19.859L19.608,19.859z M19.364,17.688c0.248,0.419,0.929,0.297,0.929,0.297l4.818-1.408
			c0,0,0.657-0.268,0.751-0.622c0.092-0.357-0.108-0.786-0.108-0.786l-2.303-2.712c0,0-0.199-0.343-0.614-0.378
			c-0.456-0.039-0.737,0.514-0.737,0.514l-2.723,4.284C19.376,16.876,19.136,17.302,19.364,17.688L19.364,17.688z M17.087,16.018
			c0.567-0.141,0.658-0.965,0.658-0.965l-0.039-6.859c0,0-0.086-0.846-0.466-1.075c-0.596-0.361-0.773-0.172-0.943-0.147l-4,1.487
			c0,0-0.393,0.129-0.596,0.456c-0.291,0.463,0.296,1.142,0.296,1.142l4.158,5.667C16.155,15.722,16.565,16.146,17.087,16.018
			L17.087,16.018z M16.1,18.793c0.014-0.528-0.635-0.847-0.635-0.847l-4.299-2.172c0,0-0.637-0.264-0.947-0.08
			c-0.237,0.141-0.447,0.394-0.467,0.618l-0.28,3.447c0,0-0.042,0.597,0.113,0.868c0.22,0.386,0.94,0.118,0.94,0.118l5.019-1.11
			C15.739,19.504,16.081,19.493,16.1,18.793L16.1,18.793z M17.348,20.653c-0.431-0.222-0.947,0.237-0.947,0.237l-3.361,3.7
			c0,0-0.419,0.565-0.313,0.913c0.1,0.325,0.267,0.487,0.502,0.602l3.375,1.065c0,0,0.41,0.085,0.719-0.006
			c0.439-0.126,0.358-0.816,0.358-0.816l0.076-5.009C17.759,21.34,17.742,20.857,17.348,20.653L17.348,20.653z"/>
	</g>
</g>
</svg>
