<?xml version="1.0" encoding="utf-8"?>
<!-- Generator: Adobe Illustrator 15.1.0, SVG Export Plug-In . SVG Version: 6.00 Build 0)  -->
<!DOCTYPE svg PUBLIC "-//W3C//DTD SVG 1.1//EN" "http://www.w3.org/Graphics/SVG/1.1/DTD/svg11.dtd">
<svg version="1.1" id="Layer_1" xmlns="http://www.w3.org/2000/svg" xmlns:xlink="http://www.w3.org/1999/xlink" x="0px" y="0px"
	 width="35.375px" height="35.375px" viewBox="0 0 35.375 35.375" enable-background="new 0 0 35.375 35.375" xml:space="preserve">
<path fill="#8CCFDD" d="M596.771,153.365c9.394,0,17.009-7.615,17.009-17.008s-7.615-17.008-17.009-17.008
	c-9.393,0-17.009,7.615-17.009,17.008S587.379,153.365,596.771,153.365"/>
<path fill="#FFFFFF" d="M605.266,132.807c-0.074,1.653-1.232,3.914-3.466,6.783c-2.312,3-4.271,4.499-5.872,4.499
	c-0.99,0-1.829-0.912-2.515-2.742c-0.459-1.679-0.915-3.357-1.373-5.032c-0.51-1.83-1.056-2.745-1.64-2.745
	c-0.127,0-0.57,0.267-1.334,0.802l-0.8-1.031c0.838-0.734,1.664-1.473,2.479-2.209c1.116-0.967,1.955-1.473,2.516-1.525
	c1.319-0.129,2.134,0.774,2.44,2.705c0.327,2.085,0.558,3.381,0.685,3.89c0.382,1.728,0.8,2.59,1.258,2.59
	c0.354,0,0.889-0.558,1.601-1.675c0.712-1.119,1.092-1.97,1.144-2.556c0.102-0.966-0.279-1.446-1.144-1.446
	c-0.406,0-0.826,0.086-1.258,0.267c0.84-2.72,2.44-4.041,4.804-3.964C604.542,129.465,605.368,130.598,605.266,132.807z"/>
<g>
	<path fill="#696969" d="M17.688,34.695c9.394,0,17.008-7.615,17.008-17.008c0-9.393-7.614-17.008-17.008-17.008
		C8.293,0.68,0.68,8.294,0.68,17.688C0.68,27.08,8.293,34.695,17.688,34.695"/>
	<path fill="#FFFFFF" d="M22.906,9.184H12.473c-1.812,0-3.287,1.474-3.287,3.287v3.471v6.963c0,1.812,1.475,3.287,3.287,3.287
		h10.434c1.812,0,3.287-1.475,3.287-3.287v-6.963v-3.471C26.193,10.658,24.719,9.184,22.906,9.184z M23.85,11.144l0.376-0.001v0.375
		v2.508l-2.874,0.01l-0.01-2.883L23.85,11.144z M15.263,15.941c0.544-0.754,1.428-1.248,2.427-1.248s1.883,0.494,2.427,1.248
		c0.355,0.492,0.567,1.094,0.567,1.746c0,1.65-1.344,2.993-2.994,2.993s-2.993-1.343-2.993-2.993
		C14.696,17.035,14.908,16.434,15.263,15.941z M24.536,22.904c0,0.899-0.73,1.63-1.63,1.63H12.473c-0.899,0-1.63-0.73-1.63-1.63
		v-6.963h2.539c-0.22,0.54-0.343,1.129-0.343,1.746c0,2.564,2.086,4.65,4.65,4.65s4.65-2.086,4.65-4.65
		c0-0.617-0.124-1.206-0.343-1.746h2.539V22.904z"/>
</g>
</svg>
