<?xml version="1.0" encoding="utf-8"?>
<!-- Generator: Adobe Illustrator 15.1.0, SVG Export Plug-In . SVG Version: 6.00 Build 0)  -->
<!DOCTYPE svg PUBLIC "-//W3C//DTD SVG 1.1//EN" "http://www.w3.org/Graphics/SVG/1.1/DTD/svg11.dtd">
<svg version="1.1" id="Layer_1" xmlns="http://www.w3.org/2000/svg" xmlns:xlink="http://www.w3.org/1999/xlink" x="0px" y="0px"
	 width="35.375px" height="35.375px" viewBox="0 0 35.375 35.375" enable-background="new 0 0 35.375 35.375" xml:space="preserve">
<g>
	<path fill="#5E8FAE" d="M17.688,34.695c9.394,0,17.009-7.615,17.009-17.008c0-9.393-7.615-17.008-17.009-17.008
		S0.679,8.294,0.679,17.688C0.679,27.08,8.294,34.695,17.688,34.695"/>
	<path fill="#FFFFFF" d="M17.872,9.184v4.299h4.035v2.67h-4.035v4.361c0,0.986,0.052,1.619,0.156,1.898
		c0.104,0.281,0.298,0.504,0.584,0.672c0.375,0.225,0.805,0.337,1.29,0.337c0.861,0,1.717-0.28,2.569-0.841v2.685
		c-0.728,0.341-1.385,0.581-1.974,0.72c-0.59,0.139-1.227,0.207-1.911,0.207c-0.778,0-1.466-0.099-2.062-0.294
		c-0.597-0.198-1.107-0.477-1.528-0.841c-0.422-0.363-0.716-0.75-0.878-1.16c-0.163-0.408-0.244-1.002-0.244-1.779v-5.965h-1.881
		v-2.406c0.67-0.219,1.241-0.529,1.718-0.934c0.476-0.406,0.859-0.893,1.146-1.461c0.288-0.567,0.487-1.291,0.596-2.167H17.872z"/>
</g>
</svg>
