<?xml version="1.0" encoding="utf-8"?>
<!-- Generator: Adobe Illustrator 15.1.0, SVG Export Plug-In . SVG Version: 6.00 Build 0)  -->
<!DOCTYPE svg PUBLIC "-//W3C//DTD SVG 1.1//EN" "http://www.w3.org/Graphics/SVG/1.1/DTD/svg11.dtd">
<svg version="1.1" id="Layer_1" xmlns="http://www.w3.org/2000/svg" xmlns:xlink="http://www.w3.org/1999/xlink" x="0px" y="0px"
	 width="35.375px" height="35.375px" viewBox="0 0 35.375 35.375" enable-background="new 0 0 35.375 35.375" xml:space="preserve">
<g>
	<path fill="#78CBEF" d="M17.688,34.695c9.391,0,17.004-7.613,17.004-17.008c0-9.393-7.613-17.008-17.004-17.008
		C8.295,0.679,0.68,8.294,0.68,17.688C0.68,27.082,8.295,34.695,17.688,34.695"/>
	<path fill="#FFFFFF" d="M26.22,13.232c-0.625,0.277-1.299,0.467-2.006,0.551c0.723-0.434,1.277-1.117,1.537-1.932
		c-0.676,0.398-1.423,0.689-2.221,0.846c-0.636-0.678-1.545-1.102-2.551-1.102c-1.93,0-3.494,1.562-3.494,3.492
		c0,0.275,0.03,0.541,0.09,0.797c-2.905-0.146-5.479-1.537-7.205-3.652c-0.301,0.518-0.473,1.117-0.473,1.758
		c0,1.213,0.617,2.283,1.555,2.91c-0.573-0.018-1.112-0.176-1.584-0.438v0.043c0,1.695,1.205,3.107,2.805,3.428
		c-0.293,0.082-0.602,0.123-0.921,0.123c-0.225,0-0.445-0.021-0.657-0.062c0.444,1.389,1.735,2.4,3.265,2.426
		c-1.196,0.939-2.704,1.498-4.341,1.498c-0.282,0-0.561-0.016-0.834-0.049c1.547,0.99,3.384,1.57,5.358,1.57
		c6.43,0,9.945-5.326,9.945-9.945c0-0.152-0.003-0.303-0.01-0.451C25.161,14.549,25.754,13.934,26.22,13.232"/>
</g>
</svg>
