<?xml version="1.0" encoding="utf-8"?>
<!-- Generator: Adobe Illustrator 15.1.0, SVG Export Plug-In . SVG Version: 6.00 Build 0)  -->
<!DOCTYPE svg PUBLIC "-//W3C//DTD SVG 1.1//EN" "http://www.w3.org/Graphics/SVG/1.1/DTD/svg11.dtd">
<svg version="1.1" id="Layer_1" xmlns="http://www.w3.org/2000/svg" xmlns:xlink="http://www.w3.org/1999/xlink" x="0px" y="0px"
	 width="35.375px" height="35.375px" viewBox="0 0 35.375 35.375" enable-background="new 0 0 35.375 35.375" xml:space="preserve">
<g>
	<path fill="#4B4B4B" d="M17.688,34.695c9.394,0,17.007-7.615,17.007-17.008c0-9.393-7.613-17.008-17.007-17.008
		c-9.393,0-17.009,7.615-17.009,17.008C0.679,27.08,8.295,34.695,17.688,34.695"/>
	<path fill="#FFFFFF" d="M14.874,25.305c-2.022,0-3.482-1.279-3.482-2.816c0-1.507,1.812-2.762,3.833-2.739
		c0.472,0.005,0.912,0.081,1.311,0.21c1.097,0.764,1.884,1.194,2.106,2.064c0.042,0.177,0.064,0.357,0.064,0.543
		C18.707,24.104,17.717,25.305,14.874,25.305 M15.405,16.289c-1.356-0.04-2.647-1.518-2.881-3.299
		c-0.234-1.783,0.676-3.146,2.033-3.106c1.356,0.041,2.647,1.47,2.881,3.253C17.672,14.918,16.762,16.33,15.405,16.289
		 M18.218,18.929c-0.476-0.337-1.385-1.156-1.385-1.638c0-0.566,0.161-0.844,1.011-1.508c0.871-0.681,1.488-1.638,1.488-2.75
		c0-1.325-0.59-2.616-1.698-3.043h1.67l1.178-0.852h-5.267c-2.361,0-4.583,1.789-4.583,3.861c0,2.117,1.61,3.826,4.012,3.826
		c0.167,0,0.329-0.003,0.488-0.014c-0.156,0.297-0.268,0.635-0.268,0.982c0,0.589,0.317,1.066,0.717,1.456
		c-0.303,0-0.595,0.009-0.913,0.009c-2.925,0-5.177,1.862-5.177,3.795c0,1.902,2.468,3.092,5.393,3.092
		c3.334,0,5.177-1.892,5.177-3.795C20.061,20.826,19.611,19.912,18.218,18.929 M25.882,16.445h-2.051v-2.051h-1.65v2.051h-2.05v1.65
		h2.05v2.051h1.65v-2.051h2.051V16.445z"/>
</g>
</svg>
